<svg width="250" height="160" viewBox="0 0 250 160" fill="none" xmlns="http://www.w3.org/2000/svg">
<path opacity="0.3" d="M48.4599 14.9213C23.145 24.7238 4.35998 49.5679 0.624242 79.6285C-2.49647 104.959 4.95982 132.946 48.8547 140.919C134.26 156.439 222.301 158.254 242.718 116.394C263.136 74.5336 235.194 7.50293 191.845 2.86363C157.449 -0.826546 97.9129 -4.2206 48.4599 14.9213Z" fill="white"/>
<path d="M156.789 9.06714H92.8104C88.7972 9.06714 85.5439 12.3204 85.5439 16.3336V137.244C85.5439 141.257 88.7972 144.51 92.8104 144.51H156.789C160.802 144.51 164.055 141.257 164.055 137.244V16.3336C164.055 12.3204 160.802 9.06714 156.789 9.06714Z" fill="#333333"/>
<path opacity="0.03" d="M124.799 140.372C127.94 140.372 130.487 137.826 130.487 134.685C130.487 131.544 127.94 128.998 124.799 128.998C121.659 128.998 119.112 131.544 119.112 134.685C119.112 137.826 121.659 140.372 124.799 140.372Z" fill="#333333"/>
<path d="M156.394 20.821H93.1978V126.28H156.394V20.821Z" fill="#EFEBFF"/>
<path opacity="0.03" d="M117.563 120.008C118.704 120.008 119.629 119.083 119.629 117.943C119.629 116.802 118.704 115.877 117.563 115.877C116.423 115.877 115.498 116.802 115.498 117.943C115.498 119.083 116.423 120.008 117.563 120.008Z" fill="#333333"/>
<path opacity="0.44" d="M124.8 120.008C125.94 120.008 126.865 119.083 126.865 117.943C126.865 116.802 125.94 115.877 124.8 115.877C123.659 115.877 122.734 116.802 122.734 117.943C122.734 119.083 123.659 120.008 124.8 120.008Z" fill="white"/>
<path opacity="0.03" d="M132.036 120.008C133.176 120.008 134.101 119.083 134.101 117.943C134.101 116.802 133.176 115.877 132.036 115.877C130.895 115.877 129.97 116.802 129.97 117.943C129.97 119.083 130.895 120.008 132.036 120.008Z" fill="#333333"/>
<path opacity="0.03" d="M147.966 32.4534H101.634V72.0051H147.966V32.4534Z" fill="#333333"/>
<path opacity="0.03" d="M134.139 79.6285H101.634V83.2504H134.139V79.6285Z" fill="#333333"/>
<path opacity="0.03" d="M147.966 79.6285H136.333V83.2504H147.966V79.6285Z" fill="#333333"/>
<path opacity="0.03" d="M116.819 90.7371H101.634V94.3589H116.819V90.7371Z" fill="#333333"/>
<path opacity="0.03" d="M147.966 90.7371H120.046V94.3589H147.966V90.7371Z" fill="#333333"/>
<path opacity="0.03" d="M136.721 101.853H101.634V105.475H136.721V101.853Z" fill="#333333"/>
<path d="M78.4218 20.821H15.2256V126.28H78.4218V20.821Z" fill="#EFEBFF"/>
<path opacity="0.44" d="M39.5914 120.008C40.732 120.008 41.6567 119.083 41.6567 117.943C41.6567 116.802 40.732 115.877 39.5914 115.877C38.4508 115.877 37.5261 116.802 37.5261 117.943C37.5261 119.083 38.4508 120.008 39.5914 120.008Z" fill="white"/>
<path opacity="0.03" d="M46.8275 120.008C47.9681 120.008 48.8928 119.083 48.8928 117.943C48.8928 116.802 47.9681 115.877 46.8275 115.877C45.6869 115.877 44.7622 116.802 44.7622 117.943C44.7622 119.083 45.6869 120.008 46.8275 120.008Z" fill="#333333"/>
<path opacity="0.03" d="M54.0633 120.008C55.204 120.008 56.1286 119.083 56.1286 117.943C56.1286 116.802 55.204 115.877 54.0633 115.877C52.9227 115.877 51.998 116.802 51.998 117.943C51.998 119.083 52.9227 120.008 54.0633 120.008Z" fill="#333333"/>
<path opacity="0.03" d="M69.9934 32.4534H23.6611V72.0051H69.9934V32.4534Z" fill="#333333"/>
<path opacity="0.03" d="M56.1666 79.6285H23.6611V83.2504H56.1666V79.6285Z" fill="#333333"/>
<path opacity="0.03" d="M69.9937 79.6285H58.3613V83.2504H69.9937V79.6285Z" fill="#333333"/>
<path opacity="0.03" d="M38.8471 90.7371H23.6611V94.3589H38.8471V90.7371Z" fill="#333333"/>
<path opacity="0.03" d="M69.9935 90.7371H42.0742V94.3589H69.9935V90.7371Z" fill="#333333"/>
<path opacity="0.03" d="M58.7482 101.853H23.6611V105.475H58.7482V101.853Z" fill="#333333"/>
<path d="M234.366 20.821H171.17V126.28H234.366V20.821Z" fill="#EFEBFF"/>
<path opacity="0.03" d="M195.536 120.008C196.676 120.008 197.601 119.083 197.601 117.943C197.601 116.802 196.676 115.877 195.536 115.877C194.395 115.877 193.47 116.802 193.47 117.943C193.47 119.083 194.395 120.008 195.536 120.008Z" fill="#333333"/>
<path opacity="0.03" d="M202.772 120.008C203.912 120.008 204.837 119.083 204.837 117.943C204.837 116.802 203.912 115.877 202.772 115.877C201.631 115.877 200.706 116.802 200.706 117.943C200.706 119.083 201.631 120.008 202.772 120.008Z" fill="#333333"/>
<path opacity="0.44" d="M210.008 120.008C211.149 120.008 212.073 119.083 212.073 117.943C212.073 116.802 211.149 115.877 210.008 115.877C208.867 115.877 207.943 116.802 207.943 117.943C207.943 119.083 208.867 120.008 210.008 120.008Z" fill="white"/>
<path opacity="0.03" d="M225.938 32.4534H179.605V72.0051H225.938V32.4534Z" fill="#333333"/>
<path opacity="0.03" d="M212.111 79.6285H179.605V83.2504H212.111V79.6285Z" fill="#333333"/>
<path opacity="0.03" d="M225.938 79.6285H214.305V83.2504H225.938V79.6285Z" fill="#333333"/>
<path opacity="0.03" d="M194.791 90.7371H179.605V94.3589H194.791V90.7371Z" fill="#333333"/>
<path opacity="0.03" d="M225.945 90.7371H198.026V94.3589H225.945V90.7371Z" fill="#333333"/>
<path opacity="0.03" d="M214.693 101.853H179.605V105.475H214.693V101.853Z" fill="#333333"/>
<path opacity="0.1" d="M146.364 144.541C146.364 143.781 144.754 112.65 145.786 108.019C146.819 103.387 156.295 80.7447 153.797 78.1023C151.299 75.46 142.149 81.4736 142.149 81.4736C142.149 81.4736 143.82 54.2073 139.872 52.2635C135.923 50.3197 134.169 57.9354 134.169 57.9354L132.066 88.4363L121.648 144.396L146.364 144.541Z" fill="#333333"/>
<path d="M139.325 112.795C140.654 107.479 142.651 102.293 143.926 96.9252C144.769 93.3717 150.221 78.5199 151.747 74.1463C152.218 72.8024 152.62 71.1775 151.709 70.0841C151.402 69.7644 151.018 69.5272 150.595 69.3946C150.172 69.2619 149.722 69.2379 149.287 69.3248C148.409 69.508 147.6 69.9312 146.948 70.5473C145.43 71.8836 142.628 78.4971 140.578 78.4895C138.095 78.4895 139.264 71.6558 139.196 70.3423C138.915 64.6855 139.333 57.4342 137.123 52.1191C135.483 48.1708 131.413 48.7023 130.456 52.9696C129.5 57.2368 129.538 75.1182 129.538 75.1182C129.538 75.1182 113.653 72.3924 110.942 77.2367C108.232 82.081 112.81 112.855 112.81 112.855L139.325 112.795Z" fill="#F4A28C"/>
<path d="M141.261 160L140.973 111.094L111.292 104.579L99.3403 160H141.261Z" fill="#633CFF"/>
<path opacity="0.1" d="M141.261 160L140.973 111.094L126.804 107.981L124.268 160H141.261Z" fill="#333333"/>
</svg>
